<svg xmlns="http://www.w3.org/2000/svg" viewBox="0 0 217 72" width="290" height="96">
  <defs>
    <linearGradient id="g" x1="0" y1="0" x2="217" y2="0" gradientUnits="userSpaceOnUse">
      <stop offset="0%"   stop-color="#f72585"/>
      <stop offset="50%"  stop-color="#7209b7"/>
      <stop offset="100%" stop-color="#4cc9f0"/>
    </linearGradient>
  </defs>
  <g fill="url(#g)" shape-rendering="crispEdges">
    <!-- Row 0 -->
    <rect x="21"  y="0"  width="21" height="12"/>
    <rect x="77"  y="0"  width="14" height="12"/>
    <rect x="126" y="0"  width="14" height="12"/>
    <rect x="154" y="0"  width="14" height="12"/>
    <rect x="203" y="0"  width="14" height="12"/>
    <!-- Row 1 -->
    <rect x="14"  y="12" width="35" height="12"/>
    <rect x="77"  y="12" width="21" height="12"/>
    <rect x="119" y="12" width="21" height="12"/>
    <rect x="161" y="12" width="14" height="12"/>
    <rect x="196" y="12" width="14" height="12"/>
    <!-- Row 2 -->
    <rect x="7"   y="24" width="14" height="12"/>
    <rect x="42"  y="24" width="14" height="12"/>
    <rect x="77"  y="24" width="28" height="12"/>
    <rect x="112" y="24" width="28" height="12"/>
    <rect x="168" y="24" width="35" height="12"/>
    <!-- Row 3 -->
    <rect x="0"   y="36" width="63" height="12"/>
    <rect x="77"  y="36" width="14" height="12"/>
    <rect x="98"  y="36" width="21" height="12"/>
    <rect x="126" y="36" width="14" height="12"/>
    <rect x="175" y="36" width="21" height="12"/>
    <!-- Row 4 -->
    <rect x="0"   y="48" width="14" height="12"/>
    <rect x="49"  y="48" width="14" height="12"/>
    <rect x="77"  y="48" width="14" height="12"/>
    <rect x="105" y="48" width="7"  height="12"/>
    <rect x="126" y="48" width="14" height="12"/>
    <rect x="175" y="48" width="21" height="12"/>
    <!-- Row 5 -->
    <rect x="0"   y="60" width="14" height="12"/>
    <rect x="49"  y="60" width="14" height="12"/>
    <rect x="77"  y="60" width="14" height="12"/>
    <rect x="126" y="60" width="14" height="12"/>
    <rect x="175" y="60" width="21" height="12"/>
  </g>
</svg>
