<svg xmlns="http://www.w3.org/2000/svg" viewBox="0 0 24 6" width="216" height="54">
  <defs>
    <linearGradient id="g" x1="0" y1="0" x2="24" y2="0" gradientUnits="userSpaceOnUse">
      <stop offset="0%"   stop-color="#f72585"/>
      <stop offset="50%"  stop-color="#7209b7"/>
      <stop offset="100%" stop-color="#4cc9f0"/>
    </linearGradient>
  </defs>
  <g fill="url(#g)" shape-rendering="crispEdges">
    <!-- A (cols 0-5) -->
    <rect x="1" y="0" width="4" height="1"/>
    <rect x="0" y="1" width="2" height="1"/>
    <rect x="4" y="1" width="2" height="1"/>
    <rect x="0" y="2" width="6" height="1"/>
    <rect x="0" y="3" width="2" height="3"/>
    <rect x="4" y="3" width="2" height="3"/>
    <!-- M (cols 8-15) -->
    <rect x="8"  y="0" width="2" height="6"/>
    <rect x="14" y="0" width="2" height="6"/>
    <rect x="8"  y="1" width="8" height="1"/>
    <rect x="11" y="2" width="2" height="1"/>
    <!-- Y (cols 18-23) -->
    <rect x="18" y="0" width="2" height="2"/>
    <rect x="22" y="0" width="2" height="2"/>
    <rect x="19" y="2" width="4" height="1"/>
    <rect x="20" y="3" width="2" height="3"/>
  </g>
</svg>
