<svg xmlns="http://www.w3.org/2000/svg" width="480" height="244">
  <rect width="480" height="244" rx="8" fill="#0d1117" stroke="#21262d" stroke-width="1"/>
  <text x="24" y="45" font-family="'Fira Code',Consolas,'Courier New',monospace" font-size="12" fill="#8b949e">contributions</text><rect x="176" y="33" width="200" height="14" rx="3" fill="#21262d"/><rect x="176" y="33" width="200" height="14" rx="3" fill="#f72585"/><text x="390" y="45" font-family="'Fira Code',Consolas,'Courier New',monospace" font-size="12" fill="#e6edf3">805</text><text x="24" y="75" font-family="'Fira Code',Consolas,'Courier New',monospace" font-size="12" fill="#8b949e">longest streak</text><rect x="176" y="63" width="200" height="14" rx="3" fill="#21262d"/><rect x="176" y="63" width="200" height="14" rx="3" fill="#bb9af7"/><text x="390" y="75" font-family="'Fira Code',Consolas,'Courier New',monospace" font-size="12" fill="#e6edf3">5</text><text x="24" y="105" font-family="'Fira Code',Consolas,'Courier New',monospace" font-size="12" fill="#8b949e">current streak</text><rect x="176" y="93" width="200" height="14" rx="3" fill="#21262d"/><rect x="176" y="93" width="80" height="14" rx="3" fill="#4cc9f0"/><text x="390" y="105" font-family="'Fira Code',Consolas,'Courier New',monospace" font-size="12" fill="#e6edf3">2</text><line x1="24" y1="130" x2="456" y2="130" stroke="#21262d" stroke-width="1"/><text x="24" y="151" font-family="'Fira Code',Consolas,'Courier New',monospace" font-size="12" fill="#8b949e">php</text><rect x="176" y="139" width="200" height="14" rx="3" fill="#21262d"/><rect x="176" y="139" width="44" height="14" rx="3" fill="#f72585"/><text x="390" y="151" font-family="'Fira Code',Consolas,'Courier New',monospace" font-size="12" fill="#e6edf3">22%</text><text x="24" y="181" font-family="'Fira Code',Consolas,'Courier New',monospace" font-size="12" fill="#8b949e">java</text><rect x="176" y="169" width="200" height="14" rx="3" fill="#21262d"/><rect x="176" y="169" width="44" height="14" rx="3" fill="#bb9af7"/><text x="390" y="181" font-family="'Fira Code',Consolas,'Courier New',monospace" font-size="12" fill="#e6edf3">22%</text><text x="24" y="211" font-family="'Fira Code',Consolas,'Courier New',monospace" font-size="12" fill="#8b949e">javascript</text><rect x="176" y="199" width="200" height="14" rx="3" fill="#21262d"/><rect x="176" y="199" width="34" height="14" rx="3" fill="#4cc9f0"/><text x="390" y="211" font-family="'Fira Code',Consolas,'Courier New',monospace" font-size="12" fill="#e6edf3">17%</text>
</svg>