<svg xmlns="http://www.w3.org/2000/svg" width="480" height="244">
  <rect width="480" height="244" rx="8" fill="#ffffff" stroke="#e1e4e8" stroke-width="1"/>
  <text x="24" y="45" font-family="'Fira Code',Consolas,'Courier New',monospace" font-size="12" fill="#586069">contributions</text><rect x="176" y="33" width="200" height="14" rx="3" fill="#eaecef"/><rect x="176" y="33" width="200" height="14" rx="3" fill="#c2185b"/><text x="390" y="45" font-family="'Fira Code',Consolas,'Courier New',monospace" font-size="12" fill="#24292e">805</text><text x="24" y="75" font-family="'Fira Code',Consolas,'Courier New',monospace" font-size="12" fill="#586069">longest streak</text><rect x="176" y="63" width="200" height="14" rx="3" fill="#eaecef"/><rect x="176" y="63" width="200" height="14" rx="3" fill="#7c3aed"/><text x="390" y="75" font-family="'Fira Code',Consolas,'Courier New',monospace" font-size="12" fill="#24292e">5</text><text x="24" y="105" font-family="'Fira Code',Consolas,'Courier New',monospace" font-size="12" fill="#586069">current streak</text><rect x="176" y="93" width="200" height="14" rx="3" fill="#eaecef"/><rect x="176" y="93" width="80" height="14" rx="3" fill="#0891b2"/><text x="390" y="105" font-family="'Fira Code',Consolas,'Courier New',monospace" font-size="12" fill="#24292e">2</text><line x1="24" y1="130" x2="456" y2="130" stroke="#e1e4e8" stroke-width="1"/><text x="24" y="151" font-family="'Fira Code',Consolas,'Courier New',monospace" font-size="12" fill="#586069">php</text><rect x="176" y="139" width="200" height="14" rx="3" fill="#eaecef"/><rect x="176" y="139" width="44" height="14" rx="3" fill="#c2185b"/><text x="390" y="151" font-family="'Fira Code',Consolas,'Courier New',monospace" font-size="12" fill="#24292e">22%</text><text x="24" y="181" font-family="'Fira Code',Consolas,'Courier New',monospace" font-size="12" fill="#586069">java</text><rect x="176" y="169" width="200" height="14" rx="3" fill="#eaecef"/><rect x="176" y="169" width="44" height="14" rx="3" fill="#7c3aed"/><text x="390" y="181" font-family="'Fira Code',Consolas,'Courier New',monospace" font-size="12" fill="#24292e">22%</text><text x="24" y="211" font-family="'Fira Code',Consolas,'Courier New',monospace" font-size="12" fill="#586069">javascript</text><rect x="176" y="199" width="200" height="14" rx="3" fill="#eaecef"/><rect x="176" y="199" width="34" height="14" rx="3" fill="#0891b2"/><text x="390" y="211" font-family="'Fira Code',Consolas,'Courier New',monospace" font-size="12" fill="#24292e">17%</text>
</svg>